<?xml version="1.0" encoding="UTF-8"?>
<!DOCTYPE svg PUBLIC "-//W3C//DTD SVG 1.1//EN" "http://www.w3.org/Graphics/SVG/1.1/DTD/svg11.dtd">
<!-- Creator: CorelDRAW 2020 (64 Bit) -->
<svg xmlns="http://www.w3.org/2000/svg" xml:space="preserve" width="3.0444mm" height="4.064mm" version="1.1" style="shape-rendering:geometricPrecision; text-rendering:geometricPrecision; image-rendering:optimizeQuality; fill-rule:evenodd; clip-rule:evenodd"
viewBox="0 0 2.72 3.63"
 xmlns:xlink="http://www.w3.org/1999/xlink"
 xmlns:xodm="http://www.corel.com/coreldraw/odm/2003">
 <defs>
  <style type="text/css">
   <![CDATA[
    .fil0 {fill:#00822F}
    .fil1 {fill:#8EB918}
   ]]>
  </style>
 </defs>
 <g id="Camada_x0020_1">
  <metadata id="CorelCorpID_0Corel-Layer"/>
  <g id="_2370670936368">
   <path class="fil0" d="M1.43 0.91l0 0c0,0.29 -0.23,0.52 -0.52,0.52 -0.29,0 -0.52,-0.23 -0.52,-0.52 0,-0.29 0.23,-0.52 0.52,-0.52l0 -0.38c-0.5,0 -0.91,0.41 -0.91,0.91 0,0.5 0.41,0.91 0.91,0.91 0.5,0 0.91,-0.41 0.91,-0.91l-0.38 0z"/>
   <path class="fil1" d="M1.81 0.38c0.29,0 0.52,0.23 0.52,0.52 0,0.29 -0.23,0.52 -0.52,0.52l0 0.38c0.5,0 0.91,-0.41 0.91,-0.91 0,-0.5 -0.41,-0.91 -0.91,-0.91 -0.5,0 -0.91,0.41 -0.91,0.91l0.38 0c0,-0.29 0.23,-0.52 0.52,-0.52z"/>
   <path class="fil0" d="M0.21 3.26c0.03,0 0.06,0.01 0.07,0.03 0.02,0.02 0.03,0.06 0.03,0.1 0,0.04 -0.01,0.07 -0.03,0.1 -0.02,0.02 -0.04,0.04 -0.08,0.04 -0.03,0 -0.06,-0.01 -0.08,-0.04l-0 0 -0.01 0.03 -0.04 0 0 -0.36 0.05 0 0 0.09c0,0.01 -0,0.02 -0,0.03 -0,0.01 -0,0.02 -0,0.02l0 0c0.02,-0.03 0.04,-0.04 0.08,-0.04zm-0.01 0.04c-0.02,0 -0.04,0.01 -0.05,0.02 -0.01,0.01 -0.01,0.03 -0.02,0.06l0 0c0,0.03 0,0.05 0.01,0.07 0.01,0.01 0.03,0.02 0.05,0.02 0.02,0 0.03,-0.01 0.04,-0.02 0.01,-0.02 0.02,-0.04 0.02,-0.07 0,-0.06 -0.02,-0.09 -0.06,-0.09z"/>
   <path class="fil0" d="M0.98 3.28c0,0.04 -0.01,0.06 -0.03,0.08 -0.02,0.02 -0.06,0.03 -0.1,0.03l-0.04 0 0 0.13 -0.06 0 0 -0.34 0.1 0c0.04,0 0.07,0.01 0.09,0.03 0.02,0.02 0.03,0.04 0.03,0.08zm-0.17 0.06l0.03 0c0.03,0 0.05,-0 0.06,-0.01 0.01,-0.01 0.02,-0.03 0.02,-0.05 0,-0.02 -0.01,-0.03 -0.02,-0.04 -0.01,-0.01 -0.03,-0.01 -0.06,-0.01l-0.04 0 0 0.12z"/>
   <path class="fil0" d="M1.14 3.52c-0.04,0 -0.07,-0.01 -0.09,-0.03 -0.02,-0.02 -0.03,-0.06 -0.03,-0.1 0,-0.04 0.01,-0.07 0.03,-0.1 0.02,-0.02 0.05,-0.04 0.09,-0.04 0.03,0 0.06,0.01 0.08,0.03 0.02,0.02 0.03,0.05 0.03,0.08l0 0.03 -0.17 0c0,0.02 0.01,0.04 0.02,0.06 0.01,0.01 0.03,0.02 0.05,0.02 0.02,0 0.03,-0 0.04,-0 0.01,-0 0.03,-0.01 0.04,-0.01l0 0.04c-0.01,0.01 -0.03,0.01 -0.04,0.01 -0.01,0 -0.03,0 -0.05,0zm-0.01 -0.22c-0.02,0 -0.03,0.01 -0.04,0.02 -0.01,0.01 -0.02,0.03 -0.02,0.05l0.12 0c-0,-0.02 -0.01,-0.04 -0.02,-0.05 -0.01,-0.01 -0.02,-0.02 -0.04,-0.02z"/>
   <path class="fil0" d="M1.46 3.52l-0.01 -0.04 -0 0c-0.01,0.02 -0.02,0.03 -0.04,0.03 -0.01,0.01 -0.03,0.01 -0.05,0.01 -0.03,0 -0.04,-0.01 -0.06,-0.02 -0.01,-0.01 -0.02,-0.03 -0.02,-0.06 0,-0.03 0.01,-0.05 0.03,-0.06 0.02,-0.01 0.05,-0.02 0.09,-0.02l0.04 -0 0 -0.01c0,-0.02 -0,-0.03 -0.01,-0.04 -0.01,-0.01 -0.02,-0.01 -0.04,-0.01 -0.01,0 -0.03,0 -0.04,0.01 -0.01,0 -0.02,0.01 -0.03,0.01l-0.02 -0.04c0.01,-0.01 0.03,-0.01 0.05,-0.02 0.02,-0 0.03,-0.01 0.05,-0.01 0.03,0 0.06,0.01 0.07,0.02 0.02,0.01 0.02,0.04 0.02,0.07l0 0.17 -0.04 0zm-0.08 -0.04c0.02,0 0.04,-0.01 0.05,-0.02 0.01,-0.01 0.02,-0.03 0.02,-0.05l0 -0.02 -0.03 0c-0.03,0 -0.04,0.01 -0.06,0.01 -0.01,0.01 -0.02,0.02 -0.02,0.03 0,0.01 0,0.02 0.01,0.03 0.01,0.01 0.02,0.01 0.03,0.01z"/>
   <path class="fil0" d="M1.71 3.26c0.01,0 0.02,0 0.03,0l-0.01 0.05c-0.01,-0 -0.02,-0 -0.02,-0 -0.02,0 -0.04,0.01 -0.05,0.02 -0.01,0.01 -0.02,0.03 -0.02,0.06l0 0.13 -0.05 0 0 -0.26 0.04 0 0.01 0.05 0 0c0.01,-0.02 0.02,-0.03 0.03,-0.04 0.01,-0.01 0.03,-0.01 0.04,-0.01z"/>
   <path class="fil0" d="M1.96 3.44c0,0.03 -0.01,0.04 -0.03,0.06 -0.02,0.01 -0.04,0.02 -0.08,0.02 -0.03,0 -0.06,-0.01 -0.08,-0.02l0 -0.05c0.03,0.01 0.06,0.02 0.08,0.02 0.03,0 0.05,-0.01 0.05,-0.03 0,-0.01 -0,-0.01 -0.01,-0.02 -0,-0 -0.01,-0.01 -0.02,-0.01 -0.01,-0 -0.02,-0.01 -0.04,-0.02 -0.03,-0.01 -0.05,-0.02 -0.06,-0.03 -0.01,-0.01 -0.02,-0.03 -0.02,-0.04 0,-0.02 0.01,-0.04 0.03,-0.05 0.02,-0.01 0.04,-0.02 0.07,-0.02 0.03,0 0.06,0.01 0.09,0.02l-0.02 0.04c-0.03,-0.01 -0.05,-0.02 -0.07,-0.02 -0.03,0 -0.04,0.01 -0.04,0.02 0,0.01 0,0.01 0.01,0.02 0.01,0.01 0.02,0.01 0.05,0.02 0.02,0.01 0.04,0.02 0.05,0.02 0.01,0.01 0.02,0.01 0.02,0.02 0,0.01 0.01,0.02 0.01,0.03z"/>
   <path class="fil0" d="M2.24 3.39c0,0.04 -0.01,0.07 -0.03,0.1 -0.02,0.02 -0.05,0.04 -0.09,0.04 -0.02,0 -0.05,-0.01 -0.06,-0.02 -0.02,-0.01 -0.03,-0.03 -0.04,-0.05 -0.01,-0.02 -0.01,-0.04 -0.01,-0.07 0,-0.04 0.01,-0.07 0.03,-0.1 0.02,-0.02 0.05,-0.04 0.09,-0.04 0.04,0 0.07,0.01 0.09,0.04 0.02,0.02 0.03,0.06 0.03,0.1zm-0.19 0c0,0.06 0.02,0.09 0.07,0.09 0.04,0 0.06,-0.03 0.06,-0.09 0,-0.06 -0.02,-0.09 -0.07,-0.09 -0.02,0 -0.04,0.01 -0.05,0.02 -0.01,0.02 -0.02,0.04 -0.02,0.07z"/>
   <path class="fil0" d="M2.53 3.52l-0.05 0 0 -0.16c0,-0.02 -0,-0.03 -0.01,-0.04 -0.01,-0.01 -0.02,-0.01 -0.04,-0.01 -0.02,0 -0.04,0.01 -0.05,0.02 -0.01,0.01 -0.02,0.04 -0.02,0.07l0 0.13 -0.05 0 0 -0.26 0.04 0 0.01 0.03 0 0c0.01,-0.01 0.02,-0.02 0.03,-0.03 0.01,-0.01 0.03,-0.01 0.05,-0.01 0.06,0 0.09,0.03 0.09,0.09l0 0.17z"/>
   <path class="fil0" d="M0.33 3.26l0.06 0 0.05 0.15c0.01,0.02 0.01,0.04 0.02,0.06l0 0c0,-0.01 0,-0.02 0.01,-0.03 0,-0.01 0.02,-0.07 0.06,-0.17l0.06 0 -0.11 0.29c-0.02,0.05 -0.05,0.08 -0.1,0.08 -0.01,0 -0.02,-0 -0.04,-0l0 -0.04c0.01,0 0.02,0 0.03,0 0.03,0 0.04,-0.02 0.06,-0.05l0.01 -0.02 -0.1 -0.26z"/>
   <path class="fil0" d="M1.33 2.79c-0.14,0 -0.23,-0.11 -0.23,-0.24 0,-0.13 0.09,-0.24 0.23,-0.24 0.14,0 0.23,0.11 0.23,0.24 0,0.13 -0.09,0.24 -0.23,0.24zm0 -0.71c-0.28,0 -0.48,0.21 -0.48,0.46 0,0.25 0.2,0.46 0.48,0.46 0.28,0 0.48,-0.21 0.48,-0.46 0,-0.25 -0.2,-0.46 -0.48,-0.46z"/>
   <path class="fil0" d="M2.57 2.7c-0.06,0.06 -0.12,0.09 -0.2,0.09 -0.14,0 -0.22,-0.11 -0.22,-0.24 0,-0.13 0.09,-0.24 0.21,-0.24 0.09,0 0.15,0.04 0.2,0.1l0.15 -0.17c-0.08,-0.09 -0.19,-0.15 -0.35,-0.15 -0.27,0 -0.46,0.21 -0.46,0.46 0,0.25 0.2,0.46 0.46,0.46 0.18,0 0.28,-0.07 0.36,-0.16l-0.15 -0.15z"/>
   <path class="fil0" d="M0.68 2.7c-0.06,0.06 -0.12,0.09 -0.2,0.09 -0.14,0 -0.22,-0.11 -0.22,-0.24 0,-0.13 0.09,-0.24 0.21,-0.24 0.09,0 0.15,0.04 0.2,0.1l0.15 -0.17c-0.08,-0.09 -0.19,-0.15 -0.35,-0.15 -0.27,0 -0.46,0.21 -0.46,0.46 0,0.25 0.2,0.46 0.46,0.46 0.18,0 0.28,-0.07 0.36,-0.16l-0.15 -0.15z"/>
  </g>
 </g>
</svg>
