<?xml version="1.0" encoding="UTF-8"?>
<!DOCTYPE svg PUBLIC "-//W3C//DTD SVG 1.1//EN" "http://www.w3.org/Graphics/SVG/1.1/DTD/svg11.dtd">
<!-- Creator: CorelDRAW 2020 (64 Bit) -->
<svg xmlns="http://www.w3.org/2000/svg" xml:space="preserve" width="4.064mm" height="1.168mm" version="1.1" style="shape-rendering:geometricPrecision; text-rendering:geometricPrecision; image-rendering:optimizeQuality; fill-rule:evenodd; clip-rule:evenodd"
viewBox="0 0 39.78 11.43"
 xmlns:xlink="http://www.w3.org/1999/xlink"
 xmlns:xodm="http://www.corel.com/coreldraw/odm/2003">
 <defs>
  <style type="text/css">
   <![CDATA[
    .fil0 {fill:#00822F}
    .fil1 {fill:#8EB918}
   ]]>
  </style>
 </defs>
 <g id="Camada_x0020_1">
  <metadata id="CorelCorpID_0Corel-Layer"/>
  <g id="_2137075127056">
   <path class="fil0" d="M9.01 5.72l0 0c0,1.82 -1.48,3.3 -3.3,3.3 -1.82,0 -3.29,-1.48 -3.29,-3.3 0,-1.82 1.48,-3.29 3.29,-3.29l0 -2.42c-3.16,0 -5.72,2.56 -5.72,5.72 0,3.16 2.56,5.72 5.72,5.72 3.16,0 5.72,-2.56 5.72,-5.72l-2.42 0z"/>
   <path class="fil1" d="M11.4 2.42c1.82,0 3.3,1.48 3.3,3.29 0,1.82 -1.48,3.29 -3.3,3.29l0 2.42c3.16,0 5.72,-2.56 5.72,-5.72 0,-3.16 -2.56,-5.72 -5.72,-5.72 -3.16,0 -5.72,2.56 -5.72,5.72l2.42 0c0,-1.82 1.48,-3.29 3.29,-3.29z"/>
   <path class="fil0" d="M21.24 8.66c0.24,0 0.42,0.09 0.55,0.26 0.13,0.17 0.2,0.41 0.2,0.72 0,0.31 -0.07,0.55 -0.2,0.73 -0.13,0.17 -0.32,0.26 -0.56,0.26 -0.24,0 -0.43,-0.09 -0.56,-0.26l-0.03 0 -0.07 0.22 -0.3 0 0 -2.66 0.4 0 0 0.63c0,0.05 -0,0.12 -0.01,0.21 -0,0.09 -0.01,0.15 -0.01,0.18l0.02 0c0.13,-0.19 0.32,-0.28 0.57,-0.28zm-0.1 0.33c-0.16,0 -0.28,0.05 -0.35,0.14 -0.07,0.1 -0.11,0.26 -0.11,0.48l0 0.03c0,0.23 0.04,0.4 0.11,0.5 0.07,0.1 0.19,0.15 0.36,0.15 0.14,0 0.25,-0.06 0.32,-0.17 0.07,-0.11 0.11,-0.28 0.11,-0.49 0,-0.43 -0.15,-0.65 -0.44,-0.65z"/>
   <path class="fil0" d="M26.95 8.84c0,0.26 -0.09,0.46 -0.26,0.6 -0.17,0.14 -0.41,0.21 -0.73,0.21l-0.26 0 0 0.94 -0.41 0 0 -2.5 0.72 0c0.31,0 0.55,0.06 0.7,0.19 0.16,0.13 0.23,0.32 0.23,0.56zm-1.25 0.47l0.22 0c0.21,0 0.36,-0.04 0.46,-0.11 0.1,-0.07 0.15,-0.19 0.15,-0.34 0,-0.14 -0.04,-0.25 -0.13,-0.32 -0.09,-0.07 -0.23,-0.11 -0.41,-0.11l-0.28 0 0 0.88z"/>
   <path class="fil0" d="M28.16 10.62c-0.29,0 -0.52,-0.09 -0.69,-0.26 -0.17,-0.17 -0.25,-0.41 -0.25,-0.71 0,-0.31 0.08,-0.55 0.23,-0.73 0.15,-0.18 0.37,-0.27 0.64,-0.27 0.25,0 0.45,0.08 0.59,0.23 0.15,0.15 0.22,0.36 0.22,0.63l0 0.22 -1.26 0c0.01,0.18 0.06,0.32 0.15,0.42 0.09,0.1 0.23,0.15 0.4,0.15 0.11,0 0.22,-0.01 0.31,-0.03 0.1,-0.02 0.2,-0.06 0.31,-0.11l0 0.33c-0.1,0.05 -0.2,0.08 -0.3,0.1 -0.1,0.02 -0.22,0.03 -0.34,0.03zm-0.07 -1.66c-0.13,0 -0.23,0.04 -0.31,0.12 -0.08,0.08 -0.12,0.2 -0.14,0.35l0.86 0c-0,-0.16 -0.04,-0.28 -0.11,-0.36 -0.07,-0.08 -0.17,-0.12 -0.3,-0.12z"/>
   <path class="fil0" d="M30.54 10.59l-0.08 -0.26 -0.01 0c-0.09,0.12 -0.18,0.19 -0.28,0.24 -0.09,0.04 -0.21,0.06 -0.36,0.06 -0.19,0 -0.33,-0.05 -0.44,-0.15 -0.1,-0.1 -0.16,-0.24 -0.16,-0.43 0,-0.19 0.07,-0.34 0.22,-0.44 0.14,-0.1 0.37,-0.15 0.66,-0.16l0.33 -0.01 0 -0.1c0,-0.12 -0.03,-0.21 -0.09,-0.27 -0.06,-0.06 -0.14,-0.09 -0.26,-0.09 -0.1,0 -0.19,0.01 -0.28,0.04 -0.09,0.03 -0.18,0.06 -0.26,0.1l-0.13 -0.29c0.1,-0.05 0.22,-0.09 0.34,-0.12 0.12,-0.03 0.24,-0.04 0.35,-0.04 0.24,0 0.42,0.05 0.55,0.16 0.12,0.11 0.18,0.27 0.18,0.5l0 1.28 -0.29 0zm-0.6 -0.27c0.15,0 0.26,-0.04 0.35,-0.12 0.09,-0.08 0.13,-0.2 0.13,-0.34l0 -0.17 -0.24 0.01c-0.19,0.01 -0.33,0.04 -0.41,0.1 -0.09,0.06 -0.13,0.14 -0.13,0.26 0,0.09 0.03,0.15 0.08,0.2 0.05,0.05 0.13,0.07 0.23,0.07z"/>
   <path class="fil0" d="M32.35 8.66c0.08,0 0.15,0.01 0.2,0.02l-0.04 0.37c-0.06,-0.01 -0.12,-0.02 -0.18,-0.02 -0.16,0 -0.29,0.05 -0.39,0.16 -0.1,0.1 -0.15,0.24 -0.15,0.41l0 0.99 -0.4 0 0 -1.89 0.32 0 0.05 0.33 0.02 0c0.06,-0.11 0.14,-0.2 0.25,-0.27 0.1,-0.07 0.21,-0.1 0.33,-0.1z"/>
   <path class="fil0" d="M34.17 10.05c0,0.18 -0.07,0.33 -0.2,0.43 -0.14,0.1 -0.33,0.15 -0.58,0.15 -0.25,0 -0.46,-0.04 -0.61,-0.11l0 -0.35c0.22,0.1 0.43,0.15 0.62,0.15 0.25,0 0.37,-0.08 0.37,-0.23 0,-0.05 -0.01,-0.09 -0.04,-0.12 -0.03,-0.03 -0.07,-0.07 -0.14,-0.1 -0.06,-0.03 -0.15,-0.07 -0.26,-0.12 -0.22,-0.09 -0.37,-0.17 -0.44,-0.25 -0.08,-0.08 -0.11,-0.19 -0.11,-0.33 0,-0.16 0.07,-0.29 0.2,-0.38 0.13,-0.09 0.31,-0.14 0.53,-0.14 0.22,0 0.43,0.05 0.63,0.14l-0.13 0.3c-0.2,-0.08 -0.38,-0.13 -0.52,-0.13 -0.21,0 -0.32,0.06 -0.32,0.18 0,0.06 0.03,0.11 0.08,0.15 0.06,0.04 0.18,0.1 0.36,0.17 0.16,0.06 0.27,0.12 0.34,0.17 0.07,0.05 0.12,0.11 0.16,0.17 0.03,0.07 0.05,0.14 0.05,0.23z"/>
   <path class="fil0" d="M36.29 9.64c0,0.31 -0.08,0.55 -0.24,0.73 -0.16,0.17 -0.38,0.26 -0.66,0.26 -0.18,0 -0.33,-0.04 -0.47,-0.12 -0.14,-0.08 -0.24,-0.19 -0.31,-0.34 -0.07,-0.15 -0.11,-0.32 -0.11,-0.52 0,-0.31 0.08,-0.55 0.24,-0.72 0.16,-0.17 0.38,-0.26 0.67,-0.26 0.27,0 0.49,0.09 0.65,0.26 0.16,0.18 0.24,0.42 0.24,0.71zm-1.38 0c0,0.44 0.16,0.66 0.48,0.66 0.32,0 0.48,-0.22 0.48,-0.66 0,-0.43 -0.16,-0.65 -0.48,-0.65 -0.17,0 -0.29,0.06 -0.37,0.17 -0.08,0.11 -0.11,0.27 -0.11,0.48z"/>
   <path class="fil0" d="M38.42 10.59l-0.4 0 0 -1.16c0,-0.15 -0.03,-0.26 -0.09,-0.33 -0.06,-0.07 -0.15,-0.11 -0.28,-0.11 -0.17,0 -0.29,0.05 -0.37,0.15 -0.08,0.1 -0.12,0.27 -0.12,0.51l0 0.94 -0.4 0 0 -1.89 0.32 0 0.06 0.25 0.02 0c0.06,-0.09 0.14,-0.16 0.24,-0.21 0.1,-0.05 0.22,-0.07 0.35,-0.07 0.45,0 0.68,0.23 0.68,0.69l0 1.23z"/>
   <path class="fil0" d="M22.17 8.69l0.44 0 0.39 1.07c0.06,0.15 0.1,0.3 0.12,0.43l0.01 0c0.01,-0.06 0.03,-0.14 0.06,-0.23 0.03,-0.09 0.17,-0.52 0.43,-1.28l0.44 0 -0.81 2.15c-0.15,0.39 -0.39,0.59 -0.74,0.59 -0.09,0 -0.18,-0.01 -0.26,-0.03l0 -0.32c0.06,0.01 0.13,0.02 0.21,0.02 0.19,0 0.33,-0.11 0.41,-0.34l0.07 -0.18 -0.76 -1.89z"/>
   <path class="fil0" d="M29.53 5.23c-1.03,0 -1.72,-0.84 -1.72,-1.81 0,-0.97 0.64,-1.81 1.7,-1.81 1.03,0 1.73,0.84 1.73,1.81 0,0.97 -0.64,1.81 -1.7,1.81zm0 -5.22c-2.04,0 -3.56,1.55 -3.56,3.44 0,1.88 1.51,3.39 3.54,3.39 2.04,0 3.56,-1.55 3.56,-3.44 0,-1.89 -1.5,-3.39 -3.54,-3.39z"/>
   <path class="fil0" d="M38.69 4.53c-0.45,0.43 -0.88,0.7 -1.51,0.7 -1.02,0 -1.66,-0.81 -1.66,-1.81 0,-0.97 0.66,-1.81 1.59,-1.81 0.66,0 1.08,0.28 1.49,0.72l1.14 -1.22c-0.61,-0.69 -1.38,-1.1 -2.62,-1.1 -2.01,0 -3.44,1.54 -3.44,3.41 0,1.87 1.44,3.41 3.41,3.41 1.31,0 2.04,-0.5 2.68,-1.2l-1.09 -1.1z"/>
   <path class="fil0" d="M24.74 4.53c-0.45,0.43 -0.88,0.7 -1.51,0.7 -1.02,0 -1.66,-0.81 -1.66,-1.81 0,-0.97 0.66,-1.81 1.59,-1.81 0.66,0 1.08,0.28 1.49,0.72l1.14 -1.22c-0.61,-0.69 -1.38,-1.1 -2.62,-1.1 -2.01,0 -3.44,1.54 -3.44,3.41 0,1.87 1.44,3.41 3.41,3.41 1.31,0 2.04,-0.5 2.68,-1.2l-1.09 -1.1z"/>
  </g>
 </g>
</svg>
