<?xml version="1.0" encoding="UTF-8"?>
<!DOCTYPE svg PUBLIC "-//W3C//DTD SVG 1.1//EN" "http://www.w3.org/Graphics/SVG/1.1/DTD/svg11.dtd">
<!-- Creator: CorelDRAW 2020 (64 Bit) -->
<svg xmlns="http://www.w3.org/2000/svg" xml:space="preserve" width="4.1402mm" height="4.1402mm" version="1.1" style="shape-rendering:geometricPrecision; text-rendering:geometricPrecision; image-rendering:optimizeQuality; fill-rule:evenodd; clip-rule:evenodd"
viewBox="0 0 6.17 6.17"
 xmlns:xlink="http://www.w3.org/1999/xlink"
 xmlns:xodm="http://www.corel.com/coreldraw/odm/2003">
 <defs>
  <style type="text/css">
   <![CDATA[
    .str0 {stroke:#2B1358;stroke-width:0.11;stroke-miterlimit:22.9256}
    .fil3 {fill:none}
    .fil0 {fill:#FEFEFE}
    .fil2 {fill:#2B1358}
    .fil4 {fill:#2B1358;fill-rule:nonzero}
    .fil1 {fill:#FDFA00;fill-rule:nonzero}
   ]]>
  </style>
 </defs>
 <g id="Camada_x0020_1">
  <metadata id="CorelCorpID_0Corel-Layer"/>
  <circle class="fil0" cx="3.09" cy="3.09" r="2.57"/>
  <path class="fil1 str0" d="M6.12 3.09c0,-1.67 -1.36,-3.03 -3.03,-3.03 -1.67,0 -3.03,1.36 -3.03,3.03 0,1.67 1.36,3.03 3.03,3.03 1.67,0 3.03,-1.36 3.03,-3.03zm-0.83 0c0,1.22 -0.99,2.2 -2.2,2.2 -1.22,0 -2.2,-0.99 -2.2,-2.2 0,-1.22 0.99,-2.2 2.2,-2.2 1.22,0 2.2,0.99 2.2,2.2zm-0.14 -0.84m0.08 0.3m-0.03 -0.05m0 -0.01m0 0.01m-0 -0.01m0 0m-0 0"/>
  <g id="_2335130701232">
   <path class="fil2" d="M2.52 1.23l-0.07 3.62c0.24,0.18 0.77,0.23 1.17,0.14l0.02 -0.82 -0.66 0 0.02 -0.61 0.6 -0.01 0.02 -0.97 -0.6 0 0 -0.47 0.65 -0 0.02 -0.88c-0.32,-0.17 -1.11,-0.09 -1.18,-0z"/>
   <path class="fil2" d="M4.17 4.85c0.42,-0.26 0.82,-0.9 0.91,-1.53l-0.45 -0.13c-0.02,0.24 -0.14,0.51 -0.27,0.62 -0.1,-0.52 -0.1,-1.03 0.06,-1.53 0.12,0.04 0.2,0.3 0.21,0.48l0.45 0.05c0,-0.84 -0.72,-1.57 -1,-1.55 -0.19,0.12 -0.38,1.06 -0.36,1.9 0.02,0.79 0.23,1.47 0.45,1.7z"/>
   <path class="fil2" d="M1.75 4.63c0.03,0 0.06,-0.01 0.06,-0.05l-0.09 -1.04 0.49 0.05 -0 -0.85 -0.46 0.06c0,-0.11 0.01,-0.21 0.02,-0.32 0.07,-0.03 0.52,-0.23 0.56,-0.26 0.04,-0.1 0.12,-0.91 0.02,-0.91 -0.33,0.08 -0.67,0.36 -0.89,0.62 -0.33,0.38 -0.42,0.93 -0.33,1.54 0.07,0.49 0.29,0.88 0.62,1.17z"/>
  </g>
  <g id="_2335130704880">
   <circle class="fil3" cx="3.14" cy="3.14" r="2.27"/>
   <circle class="fil3" cx="3.09" cy="3.09" r="3.03"/>
   <path class="fil4" d="M1.39 4.99l-0.04 -0.07c0.04,-0.02 0.07,-0.04 0.1,-0.04 0.03,0 0.07,0.02 0.1,0.04 0.04,0.03 0.06,0.07 0.06,0.12 0,0.05 -0.01,0.09 -0.05,0.14 -0.04,0.05 -0.09,0.08 -0.13,0.08 -0.05,0.01 -0.09,-0.01 -0.13,-0.04 -0.04,-0.03 -0.06,-0.07 -0.06,-0.1 -0,-0.02 0,-0.05 0.02,-0.08l0.07 0.03c-0.01,0.02 -0.01,0.04 -0.01,0.05 0,0.02 0.01,0.03 0.03,0.05 0.02,0.02 0.05,0.03 0.07,0.02 0.03,-0 0.05,-0.02 0.08,-0.06 0.03,-0.04 0.05,-0.07 0.05,-0.1 -0,-0.03 -0.01,-0.05 -0.03,-0.07 -0.02,-0.01 -0.03,-0.02 -0.05,-0.02 -0.02,0 -0.04,0.01 -0.06,0.03zm-0.15 -0.07c-0.03,0.03 -0.06,0.04 -0.09,0.05 -0.02,0.01 -0.04,0.01 -0.06,0.01 -0.02,-0 -0.04,-0.01 -0.06,-0.01 -0.02,-0.01 -0.05,-0.03 -0.07,-0.05 -0.04,-0.04 -0.05,-0.09 -0.05,-0.14 0,-0.05 0.03,-0.09 0.08,-0.13 0.05,-0.04 0.09,-0.06 0.14,-0.06 0.05,0 0.09,0.02 0.13,0.07 0.04,0.04 0.05,0.09 0.05,0.14 -0,0.05 -0.03,0.09 -0.07,0.13zm-0.05 -0.06c0.03,-0.03 0.05,-0.06 0.05,-0.09 0,-0.03 -0,-0.06 -0.03,-0.08 -0.02,-0.02 -0.05,-0.03 -0.08,-0.03 -0.03,-0 -0.06,0.01 -0.09,0.04 -0.03,0.03 -0.05,0.06 -0.05,0.09 -0,0.03 0.01,0.06 0.03,0.08 0.02,0.02 0.05,0.04 0.08,0.04 0.03,0 0.06,-0.01 0.09,-0.04zm-0.08 -0.4l-0.32 0.2 -0.04 -0.07 0.27 -0.17 -0.1 -0.16 0.05 -0.03 0.14 0.23zm-0.17 -0.28l-0.35 0.16 -0.12 -0.26 0.06 -0.03 0.08 0.19 0.08 -0.04 -0.08 -0.17 0.06 -0.03 0.08 0.17 0.09 -0.04 -0.09 -0.19 0.06 -0.03 0.12 0.26zm-0.42 0.08l-0.09 -0 -0.03 -0.07 0.1 0.03 0.02 0.04zm0.1 -0.54l-0.06 0.02 -0.05 -0.16 0.15 -0.04c0.02,0.01 0.04,0.03 0.06,0.06 0.02,0.03 0.03,0.05 0.04,0.08 0.01,0.04 0.01,0.07 0.01,0.11 -0.01,0.03 -0.02,0.06 -0.05,0.08 -0.03,0.02 -0.06,0.04 -0.09,0.05 -0.04,0.01 -0.07,0.01 -0.11,0.01 -0.03,-0.01 -0.06,-0.02 -0.09,-0.05 -0.02,-0.02 -0.03,-0.05 -0.04,-0.08 -0.01,-0.05 -0.01,-0.08 -0,-0.12 0.01,-0.03 0.03,-0.06 0.06,-0.07l0.04 0.07c-0.02,0.01 -0.03,0.02 -0.03,0.04 -0.01,0.02 -0.01,0.04 0,0.06 0.01,0.03 0.03,0.05 0.05,0.07 0.03,0.01 0.06,0.01 0.1,0 0.04,-0.01 0.07,-0.03 0.09,-0.06 0.02,-0.03 0.02,-0.05 0.01,-0.09 -0,-0.02 -0.01,-0.03 -0.02,-0.04 -0.01,-0.01 -0.02,-0.02 -0.03,-0.03l-0.05 0.01 0.02 0.08zm0.09 -0.27l-0.38 0.05 -0.01 -0.08 0.38 -0.05 0.01 0.08zm-0.21 -0.13c-0.04,0 -0.07,-0 -0.1,-0.02 -0.02,-0.01 -0.04,-0.02 -0.05,-0.04 -0.02,-0.01 -0.03,-0.03 -0.04,-0.05 -0.01,-0.02 -0.02,-0.05 -0.02,-0.08 -0,-0.06 0.02,-0.1 0.05,-0.14 0.03,-0.03 0.08,-0.05 0.15,-0.05 0.06,-0 0.11,0.02 0.15,0.05 0.04,0.03 0.05,0.08 0.05,0.13 0,0.06 -0.02,0.1 -0.05,0.14 -0.03,0.03 -0.08,0.05 -0.14,0.05zm-0 -0.08c0.04,-0 0.08,-0.01 0.1,-0.03 0.02,-0.02 0.03,-0.05 0.03,-0.08 -0,-0.03 -0.01,-0.06 -0.03,-0.08 -0.02,-0.02 -0.06,-0.03 -0.1,-0.03 -0.04,0 -0.08,0.01 -0.1,0.03 -0.02,0.02 -0.03,0.05 -0.03,0.08 0,0.03 0.01,0.06 0.03,0.08 0.02,0.02 0.06,0.03 0.1,0.03zm0.21 -0.5l-0.38 -0.06 0.02 -0.12c0.01,-0.05 0.01,-0.08 0.02,-0.09 0.01,-0.02 0.02,-0.04 0.05,-0.05 0.02,-0.01 0.05,-0.01 0.08,-0.01 0.02,0 0.04,0.01 0.06,0.02 0.01,0.01 0.03,0.02 0.03,0.04 0.01,0.01 0.01,0.03 0.01,0.04 0,0.02 -0,0.05 -0.01,0.08l-0.01 0.05 0.14 0.02 -0.01 0.08zm-0.3 -0.13l0.11 0.02 0.01 -0.04c0,-0.03 0.01,-0.05 0,-0.06 -0,-0.01 -0.01,-0.02 -0.01,-0.03 -0.01,-0.01 -0.02,-0.01 -0.03,-0.01 -0.01,-0 -0.03,0 -0.04,0.01 -0.01,0.01 -0.02,0.02 -0.02,0.03 -0,0.01 -0.01,0.03 -0.01,0.05l-0.01 0.04zm0.37 -0.22l-0.36 -0.14 0.06 -0.15c0.01,-0.04 0.03,-0.06 0.04,-0.08 0.01,-0.01 0.03,-0.02 0.05,-0.03 0.02,-0 0.04,-0 0.06,0.01 0.03,0.01 0.05,0.03 0.06,0.05 0.01,0.02 0.01,0.05 0.01,0.08 0.02,-0.01 0.03,-0.02 0.04,-0.03 0.01,-0.01 0.04,-0.01 0.07,-0.02l0.09 -0.02 -0.03 0.09 -0.1 0.02c-0.03,0.01 -0.06,0.01 -0.07,0.02 -0.01,0 -0.02,0.01 -0.02,0.02 -0.01,0.01 -0.01,0.02 -0.02,0.03l-0.01 0.01 0.15 0.06 -0.03 0.07zm-0.18 -0.15l0.02 -0.05c0.01,-0.03 0.02,-0.06 0.02,-0.07 0,-0.01 -0,-0.02 -0.01,-0.03 -0.01,-0.01 -0.01,-0.01 -0.02,-0.02 -0.01,-0 -0.02,-0.01 -0.03,-0 -0.01,0 -0.02,0.01 -0.02,0.02 -0,0.01 -0.01,0.02 -0.02,0.05l-0.02 0.06 0.09 0.04zm0.15 -0.29c-0.03,-0.02 -0.06,-0.04 -0.08,-0.06 -0.01,-0.02 -0.02,-0.04 -0.03,-0.06 -0.01,-0.02 -0.01,-0.04 -0.01,-0.06 0,-0.03 0.01,-0.05 0.03,-0.08 0.03,-0.05 0.07,-0.08 0.11,-0.09 0.05,-0.01 0.1,-0 0.15,0.03 0.05,0.03 0.09,0.07 0.1,0.12 0.01,0.05 0.01,0.09 -0.02,0.14 -0.03,0.05 -0.07,0.08 -0.11,0.09 -0.05,0.01 -0.1,0 -0.15,-0.03zm0.04 -0.07c0.04,0.02 0.07,0.03 0.1,0.02 0.03,-0.01 0.05,-0.02 0.07,-0.05 0.02,-0.03 0.02,-0.05 0.01,-0.08 -0.01,-0.03 -0.03,-0.05 -0.07,-0.08 -0.04,-0.02 -0.07,-0.03 -0.1,-0.02 -0.03,0.01 -0.05,0.02 -0.07,0.05 -0.02,0.03 -0.02,0.06 -0.01,0.08 0.01,0.03 0.03,0.05 0.07,0.07zm0.35 -0.21l-0.29 -0.25 0.17 -0.2 0.05 0.04 -0.12 0.14 0.07 0.06 0.1 -0.12 0.05 0.04 -0.1 0.12 0.12 0.1 -0.05 0.06zm0.17 -0.2l-0.05 -0.05 0.05 -0.05 0.05 0.05 -0.05 0.05zm-0.1 -0.36l-0.04 0.03c-0.01,-0.02 -0.01,-0.03 -0.01,-0.05 0,-0.01 0.01,-0.03 0.03,-0.05 0.02,-0.02 0.03,-0.03 0.05,-0.03 0.01,-0 0.02,-0 0.03,0 0.01,0 0.02,0.01 0.03,0.03l0.04 0.05c0.01,0.01 0.02,0.02 0.03,0.03 0.01,0 0.01,0.01 0.02,0.01l-0.04 0.03c-0,-0 -0.01,-0 -0.02,-0.01 -0,0.02 -0.01,0.04 -0.02,0.06 -0.01,0.01 -0.03,0.02 -0.04,0.02 -0.02,0 -0.03,-0.01 -0.04,-0.02 -0.01,-0.01 -0.01,-0.02 -0.01,-0.03 -0,-0.01 -0,-0.02 0,-0.03 0,-0.01 0.01,-0.02 0.03,-0.04 0.01,-0.01 0.01,-0.02 0.02,-0.03 -0,-0 -0,-0 -0,-0 -0.01,-0.01 -0.01,-0.01 -0.01,-0.01 -0.01,0 -0.01,0 -0.02,0.01 -0.01,0.01 -0.01,0.01 -0.01,0.02 -0,0 0,0.01 0,0.02zm0.07 -0.01c-0,0 -0,0.01 -0.01,0.02 -0.01,0.02 -0.02,0.03 -0.02,0.03 -0,0.01 -0,0.01 0,0.02 0,0 0.01,0.01 0.02,0.01 0.01,0 0.01,-0 0.02,-0.01 0.01,-0.01 0.01,-0.02 0.01,-0.02 -0,-0.01 -0,-0.02 -0.01,-0.03l-0.01 -0.01zm0.3 -0.36l0.06 -0.04 0.13 0.2c0.02,0.03 0.03,0.05 0.03,0.07 0.01,0.02 0,0.05 -0,0.07 -0.01,0.02 -0.03,0.04 -0.05,0.06 -0.03,0.02 -0.06,0.03 -0.09,0.02 -0.03,-0.01 -0.05,-0.03 -0.08,-0.06l0.06 -0.05c0.01,0.02 0.02,0.03 0.03,0.03 0.01,0.01 0.03,0.01 0.04,-0 0.01,-0.01 0.02,-0.02 0.02,-0.03 0,-0.01 -0.01,-0.03 -0.02,-0.06l-0.13 -0.21zm0.18 -0.12l0.07 -0.03 0.09 0.19c0.01,0.03 0.02,0.05 0.03,0.06 0.01,0.01 0.02,0.02 0.04,0.02 0.02,0 0.03,0 0.05,-0.01 0.02,-0.01 0.03,-0.02 0.04,-0.03 0.01,-0.01 0.01,-0.03 0,-0.04 -0,-0.01 -0.01,-0.03 -0.02,-0.06l-0.09 -0.19 0.07 -0.03 0.08 0.18c0.02,0.04 0.03,0.07 0.03,0.09 0,0.02 0,0.04 -0,0.05 -0,0.02 -0.01,0.03 -0.03,0.05 -0.01,0.01 -0.03,0.03 -0.06,0.04 -0.03,0.02 -0.06,0.02 -0.08,0.02 -0.02,0 -0.04,-0 -0.05,-0.01 -0.02,-0.01 -0.03,-0.02 -0.04,-0.03 -0.01,-0.02 -0.03,-0.05 -0.05,-0.09l-0.08 -0.19zm0.51 0.19l-0.11 -0.36 0.07 -0.02 0.09 0.3 0.18 -0.05 0.02 0.06 -0.26 0.08zm0.31 -0.09l-0.06 -0.38 0.08 -0.01 0.06 0.38 -0.08 0.01zm0.15 -0.03l-0.03 -0.38 0.28 -0.02 0.01 0.06 -0.21 0.02 0.01 0.08 0.19 -0.01 0 0.06 -0.19 0.01 0.01 0.1 0.21 -0.02 0 0.06 -0.29 0.02zm0.44 -0.02l0 -0.32 -0.11 -0 0 -0.06 0.3 0 -0 0.06 -0.11 -0 -0 0.32 -0.08 -0zm0.54 0.07l-0.08 -0.01 -0.02 -0.09 -0.15 -0.02 -0.05 0.08 -0.08 -0.01 0.21 -0.35 0.08 0.01 0.09 0.4zm-0.11 -0.17l-0.03 -0.15 -0.07 0.13 0.1 0.02zm0.28 0.22l0.16 -0.35 0.11 0.05 -0.05 0.27 0.17 -0.21 0.11 0.05 -0.16 0.35 -0.06 -0.03 0.13 -0.27 -0.19 0.24 -0.07 -0.03 0.06 -0.3 -0.13 0.27 -0.06 -0.03zm0.49 0.02c0.02,-0.03 0.04,-0.06 0.07,-0.07 0.02,-0.01 0.04,-0.02 0.06,-0.03 0.02,-0.01 0.04,-0.01 0.06,-0 0.03,0 0.05,0.01 0.08,0.03 0.05,0.03 0.08,0.07 0.09,0.12 0.01,0.05 -0,0.1 -0.03,0.15 -0.03,0.05 -0.07,0.08 -0.12,0.1 -0.05,0.01 -0.09,0 -0.14,-0.03 -0.05,-0.03 -0.08,-0.07 -0.09,-0.12 -0.01,-0.05 0,-0.1 0.03,-0.15zm0.07 0.04c-0.02,0.04 -0.03,0.07 -0.03,0.1 0.01,0.03 0.02,0.05 0.05,0.07 0.03,0.02 0.05,0.02 0.08,0.01 0.03,-0.01 0.05,-0.03 0.08,-0.07 0.02,-0.04 0.03,-0.07 0.03,-0.1 -0,-0.03 -0.02,-0.05 -0.05,-0.07 -0.03,-0.02 -0.05,-0.02 -0.08,-0.01 -0.03,0.01 -0.05,0.03 -0.08,0.07zm0.25 0.42l0.21 -0.24 -0.09 -0.07 0.04 -0.05 0.23 0.2 -0.04 0.05 -0.09 -0.07 -0.21 0.24 -0.06 -0.05zm0.37 0.4l-0.06 -0.06 0.04 -0.08 -0.1 -0.11 -0.09 0.03 -0.05 -0.06 0.38 -0.14 0.05 0.06 -0.18 0.37zm0.02 -0.21l0.07 -0.13 -0.14 0.05 0.07 0.08zm0.4 0.17l0.07 0.12c0.02,0.03 0.02,0.05 0.03,0.07 0,0.02 0,0.05 -0,0.07 -0.01,0.02 -0.02,0.04 -0.04,0.06 -0.02,0.02 -0.04,0.04 -0.07,0.05 -0.03,0.02 -0.05,0.02 -0.08,0.03 -0.03,0 -0.06,0 -0.08,-0 -0.02,-0.01 -0.04,-0.02 -0.05,-0.03 -0.01,-0.01 -0.03,-0.03 -0.04,-0.06l-0.07 -0.13 0.34 -0.18zm-0.02 0.1l-0.22 0.12 0.03 0.05c0.01,0.02 0.02,0.03 0.03,0.04 0.01,0.01 0.02,0.02 0.03,0.02 0.01,0 0.02,0 0.04,0 0.02,-0 0.04,-0.01 0.07,-0.03 0.03,-0.01 0.04,-0.03 0.06,-0.04 0.01,-0.01 0.02,-0.02 0.02,-0.04 0,-0.01 0,-0.03 -0,-0.04 -0,-0.01 -0.01,-0.03 -0.03,-0.06l-0.02 -0.03zm0.03 0.35c0.04,-0.01 0.07,-0.02 0.1,-0.02 0.02,0 0.04,0.01 0.06,0.02 0.02,0.01 0.04,0.02 0.05,0.04 0.02,0.02 0.03,0.04 0.04,0.07 0.02,0.05 0.02,0.1 -0.01,0.15 -0.02,0.04 -0.06,0.08 -0.12,0.1 -0.06,0.02 -0.11,0.02 -0.15,0 -0.04,-0.02 -0.08,-0.06 -0.09,-0.11 -0.02,-0.05 -0.02,-0.1 0,-0.15 0.02,-0.04 0.06,-0.07 0.12,-0.09zm0.03 0.07c-0.04,0.01 -0.07,0.03 -0.08,0.06 -0.01,0.03 -0.02,0.05 -0.01,0.08 0.01,0.03 0.03,0.05 0.06,0.06 0.03,0.01 0.06,0.01 0.1,-0 0.04,-0.01 0.07,-0.03 0.08,-0.06 0.01,-0.03 0.02,-0.05 0.01,-0.08 -0.01,-0.03 -0.03,-0.05 -0.06,-0.06 -0.03,-0.01 -0.06,-0.01 -0.1,0zm0.04 0.36l0.02 0.07c-0.02,0.01 -0.04,0.02 -0.05,0.04 -0.01,0.02 -0.01,0.03 -0.01,0.06 0,0.02 0.01,0.04 0.02,0.05 0.01,0.01 0.03,0.02 0.04,0.01 0.01,-0 0.02,-0.01 0.02,-0.01 0.01,-0.01 0.01,-0.02 0.01,-0.03 0,-0.01 0,-0.03 0.01,-0.06 0,-0.04 0.01,-0.07 0.02,-0.09 0.02,-0.03 0.04,-0.04 0.07,-0.05 0.02,-0 0.04,-0 0.06,0.01 0.02,0.01 0.03,0.02 0.05,0.04 0.01,0.02 0.02,0.04 0.03,0.07 0.01,0.05 0,0.08 -0.01,0.11 -0.02,0.03 -0.04,0.04 -0.08,0.05l-0.02 -0.08c0.02,-0.01 0.03,-0.02 0.04,-0.03 0.01,-0.01 0.01,-0.03 0,-0.05 -0,-0.02 -0.01,-0.04 -0.02,-0.05 -0.01,-0.01 -0.02,-0.01 -0.03,-0.01 -0.01,0 -0.02,0.01 -0.02,0.02 -0.01,0.01 -0.01,0.04 -0.01,0.07 -0,0.04 -0.01,0.07 -0.01,0.09 -0.01,0.02 -0.02,0.04 -0.03,0.05 -0.01,0.01 -0.03,0.02 -0.06,0.02 -0.02,0 -0.04,0 -0.06,-0.01 -0.02,-0.01 -0.04,-0.02 -0.05,-0.04 -0.01,-0.02 -0.02,-0.05 -0.03,-0.08 -0.01,-0.05 -0,-0.09 0.02,-0.12 0.02,-0.03 0.05,-0.05 0.09,-0.06zm0.07 0.53l0 0.08c-0.03,0 -0.04,0.01 -0.06,0.02 -0.01,0.01 -0.02,0.03 -0.02,0.05 -0,0.02 0,0.04 0.01,0.06 0.01,0.01 0.02,0.02 0.04,0.02 0.01,0 0.02,-0 0.02,-0.01 0.01,-0 0.01,-0.01 0.02,-0.03 0,-0.01 0.01,-0.03 0.02,-0.06 0.01,-0.04 0.03,-0.07 0.04,-0.08 0.02,-0.02 0.05,-0.03 0.08,-0.03 0.02,0 0.04,0.01 0.05,0.02 0.02,0.01 0.03,0.03 0.04,0.05 0.01,0.02 0.01,0.05 0.01,0.08 -0,0.05 -0.02,0.08 -0.04,0.11 -0.02,0.02 -0.05,0.03 -0.09,0.03l0 -0.08c0.02,-0 0.03,-0.01 0.04,-0.02 0.01,-0.01 0.01,-0.03 0.02,-0.05 0,-0.02 -0,-0.04 -0.01,-0.05 -0.01,-0.01 -0.01,-0.01 -0.02,-0.01 -0.01,-0 -0.02,0 -0.02,0.01 -0.01,0.01 -0.02,0.03 -0.03,0.07 -0.01,0.04 -0.02,0.06 -0.03,0.08 -0.01,0.02 -0.02,0.03 -0.04,0.04 -0.02,0.01 -0.04,0.01 -0.06,0.01 -0.02,-0 -0.04,-0.01 -0.06,-0.02 -0.02,-0.01 -0.03,-0.03 -0.04,-0.05 -0.01,-0.02 -0.01,-0.05 -0.01,-0.08 0,-0.05 0.02,-0.08 0.04,-0.11 0.02,-0.02 0.06,-0.04 0.1,-0.04zm-0.22 0.7l0.02 -0.08 0.09 -0.01 0.03 -0.15 -0.08 -0.05 0.02 -0.08 0.34 0.23 -0.02 0.08 -0.41 0.07zm0.18 -0.1l0.15 -0.02 -0.13 -0.08 -0.02 0.1zm-0.19 0.14l0.36 0.14 -0.03 0.07 -0.3 0.06 0.24 0.09 -0.03 0.07 -0.36 -0.14 0.03 -0.07 0.29 -0.06 -0.23 -0.09 0.03 -0.07zm-0.19 0.43l0.28 0.16 0.06 -0.1 0.06 0.03 -0.15 0.26 -0.06 -0.03 0.06 -0.1 -0.28 -0.16 0.04 -0.07zm0.04 0.31c0.03,0.02 0.05,0.05 0.07,0.08 0.01,0.02 0.02,0.04 0.02,0.06 0,0.02 0,0.04 -0,0.06 -0.01,0.03 -0.02,0.05 -0.04,0.07 -0.04,0.04 -0.08,0.07 -0.13,0.07 -0.05,0 -0.1,-0.01 -0.15,-0.05 -0.05,-0.04 -0.08,-0.08 -0.08,-0.13 -0.01,-0.05 0.01,-0.09 0.04,-0.14 0.04,-0.04 0.08,-0.07 0.13,-0.07 0.05,-0 0.1,0.01 0.14,0.05zm-0.05 0.06c-0.03,-0.03 -0.07,-0.04 -0.1,-0.04 -0.03,0 -0.05,0.01 -0.07,0.04 -0.02,0.02 -0.03,0.05 -0.02,0.08 0,0.03 0.02,0.06 0.06,0.09 0.03,0.03 0.07,0.04 0.09,0.04 0.03,-0 0.05,-0.01 0.07,-0.04 0.02,-0.02 0.03,-0.05 0.02,-0.08 -0,-0.03 -0.02,-0.06 -0.06,-0.09zm-0.28 0.23l-0.05 0.06c-0.02,-0.02 -0.04,-0.02 -0.06,-0.02 -0.02,0 -0.04,0.01 -0.05,0.03 -0.02,0.02 -0.03,0.03 -0.03,0.05 -0,0.02 0,0.03 0.01,0.04 0.01,0.01 0.01,0.01 0.02,0.01 0.01,0 0.02,-0 0.03,-0.01 0.01,-0 0.03,-0.01 0.06,-0.03 0.04,-0.02 0.07,-0.03 0.09,-0.03 0.03,-0 0.06,0.01 0.08,0.03 0.01,0.01 0.02,0.03 0.03,0.05 0,0.02 0,0.04 -0.01,0.06 -0.01,0.02 -0.02,0.04 -0.05,0.06 -0.03,0.03 -0.07,0.05 -0.1,0.05 -0.03,0 -0.06,-0.01 -0.09,-0.04l0.05 -0.06c0.02,0.01 0.03,0.02 0.04,0.02 0.01,-0 0.03,-0.01 0.04,-0.02 0.02,-0.02 0.03,-0.03 0.03,-0.05 0,-0.01 -0,-0.02 -0.01,-0.03 -0.01,-0.01 -0.01,-0.01 -0.02,-0.01 -0.01,0 -0.04,0.01 -0.07,0.03 -0.03,0.02 -0.06,0.03 -0.08,0.04 -0.02,0.01 -0.04,0.01 -0.06,0 -0.02,-0 -0.04,-0.02 -0.05,-0.03 -0.01,-0.02 -0.02,-0.04 -0.03,-0.06 -0,-0.02 -0,-0.04 0.01,-0.07 0.01,-0.02 0.03,-0.04 0.05,-0.07 0.04,-0.03 0.07,-0.05 0.1,-0.05 0.03,-0 0.07,0.01 0.1,0.04z"/>
   <path class="fil4" d="M2.02 5.52l0.06 0.05c-0.03,0.03 -0.06,0.05 -0.09,0.06 -0.03,0.01 -0.07,-0 -0.1,-0.02 -0.05,-0.02 -0.07,-0.06 -0.09,-0.1 -0.01,-0.05 -0.01,-0.1 0.02,-0.15 0.03,-0.06 0.07,-0.09 0.11,-0.11 0.05,-0.02 0.09,-0.01 0.14,0.01 0.04,0.02 0.07,0.05 0.08,0.09 0.01,0.02 0.01,0.05 0,0.08l-0.08 -0.02c0.01,-0.02 0,-0.04 -0,-0.05 -0.01,-0.02 -0.02,-0.03 -0.04,-0.04 -0.03,-0.01 -0.05,-0.01 -0.08,-0 -0.02,0.01 -0.05,0.04 -0.07,0.08 -0.02,0.04 -0.03,0.08 -0.02,0.1 0.01,0.03 0.02,0.05 0.05,0.06 0.02,0.01 0.04,0.01 0.06,0.01 0.02,-0 0.04,-0.02 0.06,-0.04zm0.11 -0.01c0.01,-0.04 0.03,-0.07 0.05,-0.09 0.01,-0.02 0.03,-0.03 0.05,-0.04 0.02,-0.01 0.04,-0.02 0.06,-0.02 0.03,-0 0.05,0 0.08,0.01 0.05,0.02 0.09,0.05 0.11,0.09 0.02,0.04 0.02,0.1 0,0.15 -0.02,0.06 -0.05,0.1 -0.09,0.12 -0.04,0.02 -0.09,0.03 -0.14,0.01 -0.05,-0.02 -0.09,-0.05 -0.11,-0.09 -0.02,-0.04 -0.02,-0.09 -0,-0.15zm0.08 0.02c-0.01,0.04 -0.01,0.08 -0,0.1 0.01,0.03 0.03,0.05 0.06,0.06 0.03,0.01 0.06,0.01 0.08,-0.01 0.03,-0.01 0.05,-0.04 0.06,-0.09 0.01,-0.04 0.01,-0.08 0,-0.1 -0.01,-0.03 -0.03,-0.04 -0.06,-0.05 -0.03,-0.01 -0.06,-0.01 -0.08,0.01 -0.03,0.01 -0.05,0.04 -0.06,0.08zm0.24 0.28l0.16 -0.17 -0.09 -0.2 0.09 0.02 0.05 0.12 0.09 -0.1 0.09 0.02 -0.15 0.16 0.1 0.22 -0.09 -0.02 -0.06 -0.14 -0.11 0.11 -0.09 -0.02zm0.39 0.06l0.03 -0.38 0.08 0.01 -0.03 0.38 -0.08 -0.01zm0.15 0.01l-0.01 -0.38 0.12 -0 0.07 0.26 0.06 -0.26 0.12 -0 0.01 0.38 -0.07 0 -0.01 -0.3 -0.07 0.3 -0.07 0 -0.08 -0.3 0.01 0.3 -0.07 0zm0.57 -0.14l-0.01 -0.07 0.14 -0.02 0.01 0.07 -0.14 0.02zm0.35 0.03l-0.14 -0.36 0.11 -0.04 0.16 0.22 -0.03 -0.27 0.11 -0.04 0.14 0.36 -0.07 0.03 -0.11 -0.28 0.04 0.31 -0.07 0.03 -0.18 -0.25 0.11 0.28 -0.07 0.03zm0.34 -0.26l0.06 -0.04c0.02,0.02 0.03,0.03 0.05,0.03 0.02,0 0.04,-0 0.06,-0.01 0.02,-0.01 0.04,-0.03 0.04,-0.04 0.01,-0.02 0,-0.03 -0,-0.04 -0,-0.01 -0.01,-0.01 -0.02,-0.02 -0.01,-0 -0.02,-0 -0.03,-0 -0.01,0 -0.03,0.01 -0.06,0.02 -0.04,0.01 -0.07,0.02 -0.09,0.01 -0.03,-0.01 -0.05,-0.02 -0.07,-0.05 -0.01,-0.02 -0.01,-0.04 -0.01,-0.06 0,-0.02 0.01,-0.04 0.02,-0.06 0.01,-0.02 0.03,-0.03 0.06,-0.05 0.04,-0.02 0.08,-0.03 0.11,-0.03 0.03,0.01 0.06,0.02 0.08,0.05l-0.07 0.04c-0.01,-0.02 -0.03,-0.02 -0.04,-0.03 -0.01,-0 -0.03,0 -0.05,0.01 -0.02,0.01 -0.03,0.02 -0.04,0.04 -0,0.01 -0,0.02 0,0.03 0,0.01 0.01,0.01 0.02,0.01 0.01,0 0.04,-0 0.07,-0.01 0.04,-0.01 0.07,-0.02 0.09,-0.02 0.02,-0 0.04,0 0.06,0.01 0.02,0.01 0.03,0.02 0.04,0.05 0.01,0.02 0.02,0.04 0.02,0.06 -0,0.02 -0.01,0.04 -0.02,0.06 -0.01,0.02 -0.04,0.04 -0.06,0.05 -0.04,0.02 -0.08,0.03 -0.11,0.03 -0.03,-0.01 -0.06,-0.03 -0.09,-0.06z"/>
  </g>
 </g>
</svg>
