<?xml version="1.0" encoding="UTF-8"?>
<!DOCTYPE svg PUBLIC "-//W3C//DTD SVG 1.1//EN" "http://www.w3.org/Graphics/SVG/1.1/DTD/svg11.dtd">
<!-- Creator: CorelDRAW 2020 (64 Bit) -->
<svg xmlns="http://www.w3.org/2000/svg" xml:space="preserve" width="2.7709mm" height="4.064mm" version="1.1" style="shape-rendering:geometricPrecision; text-rendering:geometricPrecision; image-rendering:optimizeQuality; fill-rule:evenodd; clip-rule:evenodd"
viewBox="0 0 1.93 2.83"
 xmlns:xlink="http://www.w3.org/1999/xlink"
 xmlns:xodm="http://www.corel.com/coreldraw/odm/2003">
 <defs>
  <style type="text/css">
   <![CDATA[
    .fil0 {fill:#FEFEFE;fill-rule:nonzero}
    .fil7 {fill:#FEFEFE;fill-rule:nonzero}
    .fil4 {fill:url(#id0)}
    .fil1 {fill:url(#id1)}
    .fil2 {fill:url(#id2)}
    .fil3 {fill:url(#id3)}
    .fil6 {fill:url(#id4)}
    .fil5 {fill:url(#id5)}
   ]]>
  </style>
  <linearGradient id="id0" gradientUnits="userSpaceOnUse" x1="1.49" y1="0.92" x2="0.38" y2="0.92">
   <stop offset="0" style="stop-opacity:1; stop-color:#71D0F6"/>
   <stop offset="1" style="stop-opacity:1; stop-color:#26A1DB"/>
  </linearGradient>
  <linearGradient id="id1" gradientUnits="userSpaceOnUse" x1="0.38" y1="0.54" x2="1.49" y2="0.54">
   <stop offset="0" style="stop-opacity:1; stop-color:#F8E47C"/>
   <stop offset="0.909804" style="stop-opacity:1; stop-color:#F8E26A"/>
   <stop offset="1" style="stop-opacity:1; stop-color:#F8E057"/>
  </linearGradient>
  <linearGradient id="id2" gradientUnits="userSpaceOnUse" x1="0.38" y1="0.62" x2="1.12" y2="0.62">
   <stop offset="0" style="stop-opacity:1; stop-color:#F8E057"/>
   <stop offset="1" style="stop-opacity:1; stop-color:#FFD033"/>
  </linearGradient>
  <linearGradient id="id3" gradientUnits="userSpaceOnUse" x1="0.38" y1="0.9" x2="0.53" y2="0.9">
   <stop offset="0" style="stop-opacity:1; stop-color:#FFD033"/>
   <stop offset="0.909804" style="stop-opacity:1; stop-color:#FEC634"/>
   <stop offset="1" style="stop-opacity:1; stop-color:#FDBC36"/>
  </linearGradient>
  <linearGradient id="id4" gradientUnits="userSpaceOnUse" x1="1.49" y1="0.56" x2="1.34" y2="0.56">
   <stop offset="0" style="stop-opacity:1; stop-color:#2BA9E0"/>
   <stop offset="1" style="stop-opacity:1; stop-color:#26669F"/>
  </linearGradient>
  <linearGradient id="id5" gradientUnits="userSpaceOnUse" xlink:href="#id4" x1="1.49" y1="0.84" x2="0.75" y2="0.84">
  </linearGradient>
 </defs>
 <g id="Camada_x0020_1">
  <metadata id="CorelCorpID_0Corel-Layer"/>
  <g id="_2370797515648">
   <g>
    <path class="fil0" d="M0.55 1.74c0.03,0 0.05,-0.02 0.05,-0.05 0,-0.03 -0.02,-0.05 -0.05,-0.05 -0.03,0 -0.05,0.02 -0.05,0.05 0,0.03 0.02,0.05 0.05,0.05z"/>
    <path class="fil0" d="M1.42 1.97l-0.08 0c-0.01,-0 -0.01,-0 -0,-0.01l0.04 -0.1c0,-0 0.01,-0 0.01,0l0.04 0.1c0,0.01 0,0.01 -0.01,0.01zm0.44 -0.19l-0.05 0c-0.01,0 -0.01,0 -0.01,0.01l0 0.23c-0,0 -0,0 -0.01,-0l-0.13 -0.23c-0.01,-0.01 -0.01,-0.01 -0.02,-0.01l-0.09 0c-0.01,0 -0.01,0 -0.01,0.01 0,0.06 0,0.14 0,0.17 0,0.02 -0.01,0.02 -0.02,0l-0.07 -0.17c-0,-0.01 -0.01,-0.01 -0.02,-0.01l-0.09 0c-0.01,0 -0.01,0 -0.02,0.01l-0.06 0.13 -0.06 0.13c-0,0.01 -0,0.01 -0.01,0.01 -0,-0 -0.01,-0 -0.01,-0.01l-0.03 -0.07c0,0 0,-0.01 0.01,-0.01 0.01,-0 0.06,-0.02 0.07,-0.09 0,0 0.01,-0.08 -0.07,-0.1 0,0 -0.02,-0 -0.04,-0l-0.19 0c-0.01,0 -0.02,0.01 -0.02,0.01l0 0.12c-0,0.01 -0,0.01 -0.01,0.01l-0.1 0c-0.01,0 -0.01,0 -0.01,0.01l0 0.04c0,0.01 0,0.01 0.01,0.01l0.02 0c0.01,0 0.01,0 0.01,0.01l0 0.06c0,0.01 -0,0.01 -0.01,0.01 -0.02,0 -0.06,0.01 -0.11,-0.01 -0.09,-0.06 -0.05,-0.18 0.05,-0.21 0,0 0.05,-0.02 0.1,0 0.01,0 0.01,0 0.02,-0.01l0.01 -0.04c0,-0.01 0,-0.01 -0.01,-0.02 -0.02,-0.01 -0.07,-0.02 -0.14,-0.01 0,0 -0.09,0.01 -0.15,0.08 -0,0 -0,0 -0,-0 0,-0 -0,-0 0,-0.01l0 -0.04c0,-0.01 -0.01,-0.01 -0.01,-0.01l-0.06 0c-0.01,0 -0.01,0 -0.01,0.01l0 0.22c-0,0 0,0.01 -0,0.01 -0,0 -0,0 -0.01,-0l-0.13 -0.22c-0.01,-0.01 -0.01,-0.01 -0.03,-0.01l-0.1 0c-0.01,0 -0.01,0 -0.01,0.01l0 0.16 0 0c0,0.05 -0,0.11 -0.07,0.11 -0.07,0 -0.07,-0.06 -0.07,-0.11l0 -0.16c0,-0.01 -0,-0.01 -0.01,-0.01l-0.08 0c-0.01,0 -0.01,0 -0.01,0.01l0 0.21c0,0.13 0.15,0.16 0.24,0.13 -0,0.01 0,0 0.01,0l0 0 0.08 0c0.01,0 0.01,-0 0.01,-0.01l0 -0.21c0,-0.01 0,-0.01 0,-0.01 0,-0 0,0 0.01,0.01l0.12 0.21c0,0 0.01,0.01 0.02,0.01l0.09 0c0.02,0 0.02,-0 0.02,-0.01 0,-0.01 0,-0.05 0,-0.05 0,0 -0,-0.01 0.01,-0 0,0 0.06,0.05 0.16,0.06 0,0 0.07,0.01 0.14,-0.02 0,0 0.01,-0 0.01,0 0,0.01 0,0.01 0.01,0.01l0.08 0c0.01,-0 0.01,-0 0.01,-0.01l0 -0.25c0,-0.02 0,-0.02 0.01,-0.02l0.05 0c0.01,0 0.04,-0 0.05,0.04 0,0 0,0.04 -0.04,0.05 -0.01,0 -0.03,0 -0.04,0 -0,0 -0.01,0 -0,0.01l0.06 0.16c0,0.01 0.01,0.01 0.02,0.01l0.11 0c0.01,0 0.01,-0 0.02,-0.02l0.03 -0.08c0.01,-0.01 0.01,-0.01 0.02,-0.01l0.11 0c0.01,0 0.02,0 0.02,0.01l0.03 0.07c0,0.02 0.01,0.02 0.03,0.02l0.08 0c0.01,0 0.02,0 0.02,-0.02l0 -0.21c0,-0.04 0.01,-0.01 0.02,0.01l0.12 0.2c0.01,0.02 0.02,0.02 0.03,0.02l0.07 0c0.01,0 0.02,-0 0.02,-0.02l0 -0.32c0,-0.01 -0,-0.01 -0.01,-0.01z"/>
   </g>
   <g>
    <path class="fil1" d="M0.38 1.08l0 0 0.15 -0.11 0 -0.34c0,-0.14 0.05,-0.24 0.16,-0.3l0 0c0.08,-0.04 0.17,-0.05 0.17,-0.05l0 0 0.38 0 0 0.12 0.26 -0.2 -0.26 -0.2 0 0.12 -0.38 0c-0,0 -0.12,0 -0.23,0.06l0 0c-0.11,0.06 -0.24,0.18 -0.24,0.43l0 0 0 0.46z"/>
    <path class="fil2" d="M0.38 0.62l0 0.46 0 0 0.15 -0.11 0 -0.34c0,-0.14 0.05,-0.24 0.16,-0.3l0 0c0.08,-0.04 0.17,-0.05 0.17,-0.05l0 0 0.26 0c-0.1,-0.07 -0.22,-0.11 -0.35,-0.11 -0.05,0 -0.09,0.01 -0.14,0.02l0 0c-0,0 -0.01,0 -0.01,0l0 0c-0.11,0.06 -0.24,0.18 -0.24,0.43z"/>
    <path class="fil3" d="M0.53 0.96l0 -0.24c-0.09,0.07 -0.15,0.18 -0.15,0.3l0 0c0,0.02 0,0.03 0,0.05l0.14 -0.11z"/>
    <path class="fil0" d="M1.17 0.47c-0.04,0 -0.11,-0 -0.11,-0 -0.01,0 -0.02,0.01 -0.02,0.02l0 0.24c0,0.08 -0.01,0.16 -0.1,0.16 -0.1,0 -0.1,-0.08 -0.1,-0.16l0 -0.24c0,-0.01 -0,-0.02 -0.01,-0.02l-0.12 0c-0.01,0 -0.01,0.01 -0.01,0.02l0 0.31c0,0.19 0.22,0.24 0.36,0.19 -0,0.01 0,0.01 0.01,0.01l0.12 0c0.01,0 0.01,-0 0.01,-0.01l0 -0.49c0,-0.01 -0,-0.02 -0.01,-0.02z"/>
    <path class="fil4" d="M1.49 0.84l0 -0.46 0 0 -0.15 0.11 0 0.34c0,0.14 -0.05,0.24 -0.16,0.3l0 0c-0.08,0.04 -0.17,0.05 -0.17,0.05l0 0 -0.38 -0 0 -0.12 -0.26 0.2 0.26 0.2 0 0 0 -0.12 0.38 0c0,0 0.12,-0 0.23,-0.06l0 0c0.11,-0.06 0.24,-0.18 0.24,-0.43z"/>
    <path class="fil5" d="M1.49 0.84l0 -0.46 0 0 -0.15 0.11 0 0.34c0,0.14 -0.05,0.24 -0.16,0.3l0 0c-0.08,0.04 -0.17,0.05 -0.17,0.05l0 0 -0.26 -0c0.1,0.07 0.22,0.11 0.35,0.11l0 0c0.05,0 0.09,-0.01 0.14,-0.02l0 0c0,-0 0.01,-0 0.01,-0l0 0c0.11,-0.06 0.24,-0.18 0.24,-0.43z"/>
    <path class="fil6" d="M1.49 0.43l0 -0c0,-0.02 -0,-0.03 -0,-0.05l-0.14 0.11 0 0.24c0.09,-0.07 0.15,-0.18 0.15,-0.3z"/>
   </g>
  </g>
  <path class="fil7" d="M0 2.82l0 -0.28 0.1 0c0.02,0 0.03,0 0.04,0 0.01,0 0.03,0.01 0.03,0.01 0.01,0.01 0.02,0.02 0.02,0.03 0.01,0.01 0.01,0.02 0.01,0.04 0,0.02 -0.01,0.04 -0.02,0.06 -0.01,0.02 -0.04,0.02 -0.08,0.02l-0.07 0 0 0.11 -0.04 0zm0.04 -0.15l0.07 0c0.02,0 0.04,-0 0.05,-0.01 0.01,-0.01 0.01,-0.02 0.01,-0.04 0,-0.01 -0,-0.02 -0.01,-0.03 -0.01,-0.01 -0.01,-0.01 -0.02,-0.02 -0.01,-0 -0.02,-0 -0.03,-0l-0.07 0 0 0.1z"/>
  <path id="1" class="fil7" d="M0.24 2.72c0,-0.04 0.01,-0.06 0.03,-0.08 0.02,-0.01 0.04,-0.02 0.06,-0.02 0.03,0 0.05,0.01 0.07,0.03 0.02,0.02 0.03,0.04 0.03,0.07 0,0.03 -0,0.05 -0.01,0.06 -0.01,0.01 -0.02,0.03 -0.03,0.03 -0.01,0.01 -0.03,0.01 -0.05,0.01 -0.03,0 -0.05,-0.01 -0.07,-0.03 -0.02,-0.02 -0.03,-0.04 -0.03,-0.08zm0.03 0c0,0.03 0.01,0.04 0.02,0.06 0.01,0.01 0.03,0.02 0.04,0.02 0.02,0 0.03,-0.01 0.04,-0.02 0.01,-0.01 0.02,-0.03 0.02,-0.06 0,-0.02 -0.01,-0.04 -0.02,-0.06 -0.01,-0.01 -0.03,-0.02 -0.04,-0.02 -0.02,0 -0.03,0.01 -0.04,0.02 -0.01,0.01 -0.02,0.03 -0.02,0.06zm0.03 -0.13l0.02 -0.05 0.04 0 -0.04 0.05 -0.03 0z"/>
  <polygon id="2" class="fil7" points="0.47,2.82 0.47,2.55 0.51,2.55 0.51,2.82 "/>
  <path id="3" class="fil7" d="M0.54 2.72c0,-0.04 0.01,-0.06 0.03,-0.08 0.02,-0.01 0.04,-0.02 0.06,-0.02 0.03,0 0.05,0.01 0.07,0.03 0.02,0.02 0.03,0.04 0.03,0.07 0,0.03 -0,0.05 -0.01,0.06 -0.01,0.01 -0.02,0.03 -0.03,0.03 -0.01,0.01 -0.03,0.01 -0.05,0.01 -0.03,0 -0.05,-0.01 -0.07,-0.03 -0.02,-0.02 -0.03,-0.04 -0.03,-0.08zm0.03 0c0,0.03 0.01,0.04 0.02,0.06 0.01,0.01 0.03,0.02 0.04,0.02 0.02,0 0.03,-0.01 0.04,-0.02 0.01,-0.01 0.02,-0.03 0.02,-0.06 0,-0.02 -0.01,-0.04 -0.02,-0.06 -0.01,-0.01 -0.03,-0.02 -0.04,-0.02 -0.02,0 -0.03,0.01 -0.04,0.02 -0.01,0.01 -0.02,0.03 -0.02,0.06z"/>
  <path id="4" class="fil7" d="M1.08 2.73l0.04 0.01c-0.01,0.03 -0.02,0.05 -0.04,0.07 -0.02,0.02 -0.04,0.02 -0.07,0.02 -0.03,0 -0.05,-0.01 -0.07,-0.02 -0.02,-0.01 -0.03,-0.03 -0.04,-0.05 -0.01,-0.02 -0.01,-0.05 -0.01,-0.07 0,-0.03 0.01,-0.05 0.02,-0.08 0.01,-0.02 0.03,-0.04 0.05,-0.05 0.02,-0.01 0.04,-0.02 0.07,-0.02 0.03,0 0.05,0.01 0.07,0.02 0.02,0.01 0.03,0.03 0.04,0.06l-0.04 0.01c-0.01,-0.02 -0.02,-0.03 -0.03,-0.04 -0.01,-0.01 -0.03,-0.01 -0.05,-0.01 -0.02,0 -0.04,0.01 -0.05,0.02 -0.01,0.01 -0.02,0.02 -0.03,0.04 -0.01,0.02 -0.01,0.03 -0.01,0.05 0,0.02 0,0.04 0.01,0.06 0.01,0.02 0.02,0.03 0.03,0.04 0.01,0.01 0.03,0.01 0.05,0.01 0.02,0 0.04,-0.01 0.05,-0.02 0.01,-0.01 0.02,-0.03 0.03,-0.05z"/>
  <path id="5" class="fil7" d="M1.15 2.72c0,-0.04 0.01,-0.06 0.03,-0.08 0.02,-0.01 0.04,-0.02 0.06,-0.02 0.03,0 0.05,0.01 0.07,0.03 0.02,0.02 0.03,0.04 0.03,0.07 0,0.03 -0,0.05 -0.01,0.06 -0.01,0.01 -0.02,0.03 -0.03,0.03 -0.01,0.01 -0.03,0.01 -0.05,0.01 -0.03,0 -0.05,-0.01 -0.07,-0.03 -0.02,-0.02 -0.03,-0.04 -0.03,-0.08zm0.03 0c0,0.03 0.01,0.04 0.02,0.06 0.01,0.01 0.03,0.02 0.04,0.02 0.02,0 0.03,-0.01 0.04,-0.02 0.01,-0.01 0.02,-0.03 0.02,-0.06 0,-0.02 -0.01,-0.04 -0.02,-0.06 -0.01,-0.01 -0.03,-0.02 -0.04,-0.02 -0.02,0 -0.03,0.01 -0.04,0.02 -0.01,0.01 -0.02,0.03 -0.02,0.06z"/>
  <path id="6" class="fil7" d="M1.35 2.82l0.07 -0.1 -0.07 -0.1 0.04 0 0.03 0.05c0.01,0.01 0.01,0.02 0.01,0.02 0.01,-0.01 0.01,-0.02 0.02,-0.02l0.03 -0.05 0.04 0 -0.07 0.1 0.07 0.1 -0.04 0 -0.04 -0.06 -0.01 -0.01 -0.05 0.08 -0.04 0z"/>
  <path id="7" class="fil7" d="M1.57 2.58l0 -0.04 0.03 0 0 0.04 -0.03 0zm0 0.24l0 -0.2 0.03 0 0 0.2 -0.03 0z"/>
  <path id="8" class="fil7" d="M1.65 2.82l0 -0.2 0.03 0 0 0.03c0.01,-0.01 0.01,-0.02 0.03,-0.02 0.01,-0.01 0.02,-0.01 0.04,-0.01 0.01,0 0.03,0 0.04,0.01 0.01,0.01 0.02,0.01 0.02,0.03 0.02,-0.02 0.04,-0.04 0.06,-0.04 0.02,0 0.04,0.01 0.05,0.02 0.01,0.01 0.02,0.03 0.02,0.05l0 0.14 -0.03 0 0 -0.13c0,-0.01 -0,-0.02 -0,-0.03 -0,-0.01 -0.01,-0.01 -0.01,-0.01 -0.01,-0 -0.01,-0.01 -0.02,-0.01 -0.01,0 -0.03,0 -0.04,0.01 -0.01,0.01 -0.01,0.02 -0.01,0.05l0 0.12 -0.03 0 0 -0.13c0,-0.02 -0,-0.03 -0.01,-0.03 -0.01,-0.01 -0.01,-0.01 -0.03,-0.01 -0.01,0 -0.02,0 -0.03,0.01 -0.01,0.01 -0.01,0.01 -0.02,0.02 -0,0.01 -0.01,0.02 -0.01,0.04l0 0.1 -0.03 0z"/>
 </g>
</svg>
